Ground reaction force (.MOT) by Lee-Son Toolkit
nRows=33
nColumns=19

name Static_grf.mot
datacolumns 19
datarows 33
range 1.98 2.012
endheader
time	1_ground_force_vx	1_ground_force_vy	1_ground_force_vz	1_ground_force_px	1_ground_force_py	1_ground_force_pz	2_ground_force_vx	2_ground_force_vy	2_ground_force_vz	2_ground_force_px	2_ground_force_py	2_ground_force_pz	1_ground_torque_x	1_ground_torque_y	1_ground_torque_z	2_ground_torque_x	2_ground_torque_y	2_ground_torque_z
1.98	28.9431	314.988	-6.14282	0.365756	0	0.269627	-36.3842	326.519	5.3869	0.755996	0	0.271999	0	-3.5191	0	0	3.38668	0
1.981	29.0515	314.201	-3.36905	0.367104	0	0.271128	-36.6542	326.262	5.25201	0.756205	0	0.272367	0	-3.23274	0	0	3.49722	0
1.982	29.0785	314.027	-4.35653	0.367543	0	0.270028	-36.229	326.695	5.05036	0.756271	0	0.272041	0	-3.31945	0	0	3.42087	0
1.983	28.9625	314.373	-3.77658	0.367119	0	0.270194	-36.473	326.348	4.9835	0.756086	0	0.27224	0	-3.28868	0	0	3.46358	0
1.984	28.5415	314.285	-3.75697	0.366824	0	0.269675	-36.622	325.475	5.12024	0.755386	0	0.271963	0	-3.23447	0	0	3.44746	0
1.985	28.8693	308.872	-3.8717	0.369109	0	0.270047	-36.5247	327.572	5.09103	0.75638	0	0.27172	0	-3.23667	0	0	3.3674	0
1.986	28.7474	313.666	-3.654	0.367091	0	0.267909	-35.6492	326.61	4.76104	0.756645	0	0.271615	0	-3.19921	0	0	3.51287	0
1.987	28.8483	314.897	-3.53041	0.365836	0	0.270346	-36.2305	326.704	4.49013	0.756428	0	0.271903	0	-3.20231	0	0	3.56498	0
1.988	29.2528	314.64	-4.48983	0.367024	0	0.27032	-36.6894	325.122	5.23141	0.755727	0	0.272279	0	-3.32022	0	0	3.43197	0
1.989	29.0051	314.722	-3.73329	0.366807	0	0.27011	-36.1136	325.363	7.16122	0.756032	0	0.272371	0	-3.25747	0	0	3.21568	0
1.99	29.1852	314.551	-3.86758	0.367598	0	0.270124	-35.932	325.467	5.10069	0.756098	0	0.272527	0	-3.24501	0	0	3.50251	0
1.991	29.197	315.943	-3.96019	0.366092	0	0.269969	-36.1458	323.813	5.21562	0.755378	0	0.27186	0	-3.31328	0	0	3.55205	0
1.992	28.9633	314.635	-3.91502	0.366806	0	0.269506	-36.5802	325.652	5.31927	0.755658	0	0.271158	0	-3.21612	0	0	3.39079	0
1.993	29.2798	313.939	-4.19883	0.367114	0	0.270106	-36.182	326.261	4.96207	0.75615	0	0.271881	0	-3.26989	0	0	3.46766	0
1.994	29.0054	314.723	-3.66542	0.366654	0	0.270239	-36.1964	325.116	5.03458	0.755751	0	0.273145	0	-3.22614	0	0	3.51007	0
1.995	29.2285	314.815	-4.08742	0.366953	0	0.270614	-36.5776	325.302	5.0975	0.755528	0	0.271722	0	-3.25823	0	0	3.46542	0
1.996	29.0559	313.596	-4.1395	0.367338	0	0.272438	-36.3197	326.26	5.29533	0.756554	0	0.271572	0	-3.3723	0	0	3.42428	0
1.997	28.8828	313.329	-4.08267	0.367145	0	0.270575	-36.0614	324.946	5.18925	0.755738	0	0.271646	0	-3.25786	0	0	3.42461	0
1.998	28.9046	313.585	-4.23447	0.363959	0	0.270517	-36.1474	325.031	5.41581	0.755042	0	0.271916	0	-3.2595	0	0	3.38749	0
1.999	28.7871	313.938	-2.859	0.366988	0	0.270547	-36.1551	324.942	5.45679	0.756291	0	0.272133	0	-3.08609	0	0	3.43394	0
2	26.6084	313.94	-4.13445	0.366432	0	0.269869	-37.6632	326.529	5.11201	0.756243	0	0.272941	0	-3.24342	0	0	3.50768	0
2.001	28.8134	314.378	-5.82345	0.364994	0	0.270268	-36.2483	325.473	5.14069	0.756485	0	0.271819	0	-3.4529	0	0	3.47366	0
2.002	28.7645	314.122	-4.25411	0.367036	0	0.272208	-36.8931	325.033	5.23102	0.756074	0	0.273085	0	-3.31969	0	0	3.49541	0
2.003	28.8333	314.294	-4.39911	0.367164	0	0.27048	-36.2589	324.76	6.35726	0.754937	0	0.272049	0	-3.24397	0	0	3.26316	0
2.004	28.9918	313.946	-4.46248	0.366983	0	0.270774	-35.9995	325.387	4.83093	0.756148	0	0.272132	0	-3.24231	0	0	3.56353	0
2.005	28.5254	314.923	-4.44429	0.36652	0	0.270744	-36.3146	325.562	5.03	0.756215	0	0.272041	0	-2.8541	0	0	3.52263	0
2.006	28.8378	320.151	-4.65952	0.364889	0	0.270964	-36.1378	323.025	4.85782	0.755084	0	0.271811	0	-3.23098	0	0	3.50722	0
2.007	28.8287	314.993	-4.55584	0.366621	0	0.270647	-36.1125	325.651	4.69291	0.756313	0	0.271547	0	-3.26148	0	0	3.49614	0
2.008	28.8847	314.037	-6.62622	0.366722	0	0.270506	-36.3968	324.783	4.2233	0.755952	0	0.27166	0	-3.52099	0	0	3.57544	0
2.009	28.7821	315.079	-4.62186	0.366703	0	0.270854	-36.0205	325.122	4.8736	0.75633	0	0.271782	0	-3.34304	0	0	3.47458	0
2.01	28.3876	314.469	-4.84658	0.36704	0	0.270335	-36.0668	325.557	4.91739	0.756334	0	0.271847	0	-3.31146	0	0	3.43447	0
2.011	28.5842	314.819	-4.66773	0.367235	0	0.270665	-36.2316	326.265	4.91595	0.756686	0	0.271905	0	-3.32266	0	0	3.55913	0
2.012	28.6735	314.909	-4.53201	0.366877	0	0.270955	-36.0307	323.542	5.21435	0.755567	0	0.271982	0	-3.2424	0	0	3.41509	0
